# xmcd
#
# Track frame offsets: 
#        150
#        15111
#        37580
#        54572
#        77903
#        95721
#        113205
#        129429
#        169420
#        194671
#        207294
#        220592
#        235526
#        247296
#        261205
#        278889
#        292659
#        319364
#        329719
#        346151
#
# Disc length: 4799 seconds
#
# Revision: 0
# Processed by: cddbd v1.5.2PL0 Copyright (c) Steve Scherf et al.
# Submitted via: ExactAudioCopy v0.95b3
#
DISCID=2612bd14
DTITLE=Humble Pie  - Smokin' (1972) and Street Rats (1975)  FLAC
DYEAR=1900
DGENRE=
TTITLE0=Hot 'N' Nasty
TTITLE1=The Fixer
TTITLE2=You Are So Good For Me
TTITLE3=C'mon Everybody
TTITLE4=Old Tim Feelin
TTITLE5=30 Days In The Hole
TTITLE6=Road Runner - Road Runner's 'G' Gam
TTITLE7=I Wonder
TTITLE8=Sweet Peace  And Time
TTITLE9=Street Rat
TTITLE10=Rock And Roll Music
TTITLE11=We Can Work It Out
TTITLE12=Scored Out
TTITLE13=Road Hog
TTITLE14=Rain
TTITLE15=There' Tis
TTITLE16=Let Me Be Your Lovemaker
TTITLE17=Countryman Stomp
TTITLE18=Drive My Car
TTITLE19=Queens And Nuns
EXTD=
EXTT0=
EXTT1=
EXTT2=
EXTT3=
EXTT4=
EXTT5=
EXTT6=
EXTT7=
EXTT8=
EXTT9=
EXTT10=
EXTT11=
EXTT12=
EXTT13=
EXTT14=
EXTT15=
EXTT16=
EXTT17=
EXTT18=
EXTT19=
PLAYORDER=
